<svg width="98" height="54" viewBox="0 0 98 54" fill="none" xmlns="http://www.w3.org/2000/svg">
<rect width="97" height="54" transform="translate(0.5)" fill="#F8F8F8"/>
<path d="M53.5643 46.2857H71.4036V7.71429H53.5643V46.2857ZM53.5643 54C51.4214 54 49.6 53.25 48.1 51.75C46.6 50.25 45.85 48.4286 45.85 46.2857V7.71429C45.85 5.57145 46.6 3.75001 48.1 2.24997C49.6 0.74999 51.4214 0 53.5643 0H71.4036C73.5464 0 75.3678 0.74999 76.8679 2.24997C78.3679 3.75001 79.1179 5.57145 79.1179 7.71429V46.2857C79.1179 48.4286 78.3679 50.25 76.8679 51.75C75.3678 53.25 73.5464 54 71.4036 54H53.5643ZM26.5643 54V7.71429H17.5V0H34.2786V54H26.5643Z" fill="#1E2C60"/>
</svg>
