<svg width="98" height="54" viewBox="0 0 98 54" fill="none" xmlns="http://www.w3.org/2000/svg">
<rect width="97" height="54" transform="translate(0.5)" fill="#F8F8F8"/>
<path d="M25.04 1C22.269 1 20 3.26898 20 6.04V33.76C20 36.2209 21.7916 38.2537 24.1344 38.6819L25.7881 48.0137C26.2705 50.7405 28.8889 52.5911 31.6156 52.1087L73.7863 44.5881C76.513 44.1058 78.3636 41.4873 77.8812 38.7606L73.0381 11.4738C73.0184 11.3507 72.9791 11.2326 72.92 11.1194V6.04C72.92 3.26898 70.651 1 67.88 1H25.04ZM25.04 3.52H67.88C69.2877 3.52 70.4 4.63234 70.4 6.04V9.82H22.52V6.04C22.52 4.63234 23.6323 3.52 25.04 3.52ZM22.52 16.12H70.4V33.76C70.4 35.1677 69.2877 36.28 67.88 36.28H25.04C23.6323 36.28 22.52 35.1677 22.52 33.76V16.12ZM28.82 19.9V22.42H48.98V19.9H28.82ZM72.92 25.2156L75.4006 39.1937C75.6467 40.5768 74.7411 41.8614 73.3531 42.1075L31.1825 49.6281C29.7995 49.8742 28.5148 48.9686 28.2688 47.5806L26.6937 38.8H67.88C70.651 38.8 72.92 36.531 72.92 33.76V25.2156Z" fill="#1E2C60"/>
</svg>
