<svg width="28" height="28" viewBox="0 0 28 28" fill="none" xmlns="http://www.w3.org/2000/svg">
<path d="M14.0026 13.7084C14.5648 13.7084 15.0451 13.5082 15.4437 13.1079C15.8424 12.7075 16.0417 12.2263 16.0417 11.6641C16.0417 11.102 15.8415 10.6216 15.4412 10.223C15.0408 9.82435 14.5596 9.62504 13.9974 9.62504C13.4352 9.62504 12.9549 9.82521 12.5562 10.2256C12.1576 10.6259 11.9583 11.1071 11.9583 11.6693C11.9583 12.2315 12.1585 12.7118 12.5588 13.1105C12.9592 13.5091 13.4404 13.7084 14.0026 13.7084ZM14 23.3625C16.5861 21.0098 18.4965 18.8757 19.7312 16.9605C20.966 15.0452 21.5833 13.3584 21.5833 11.9C21.5833 9.60968 20.8513 7.73431 19.3873 6.27394C17.9233 4.81356 16.1276 4.08337 14 4.08337C11.8724 4.08337 10.0767 4.81356 8.61268 6.27394C7.14867 7.73431 6.41667 9.60968 6.41667 11.9C6.41667 13.3584 7.04861 15.0452 8.3125 16.9605C9.57639 18.8757 11.4722 21.0098 14 23.3625ZM14 25.6667C10.8694 23.0028 8.53125 20.5285 6.98542 18.2438C5.43958 15.9591 4.66667 13.8445 4.66667 11.9C4.66667 8.98337 5.60486 6.65976 7.48125 4.92921C9.35764 3.19865 11.5306 2.33337 14 2.33337C16.4694 2.33337 18.6424 3.19865 20.5187 4.92921C22.3951 6.65976 23.3333 8.98337 23.3333 11.9C23.3333 13.8445 22.5604 15.9591 21.0146 18.2438C19.4687 20.5285 17.1306 23.0028 14 25.6667Z" fill="#1E2C60"/>
</svg>
