<svg width="51" height="50" viewBox="0 0 51 50" fill="none" xmlns="http://www.w3.org/2000/svg">
<g clip-path="url(#clip0_316_97)">
<path d="M21.9566 10.6215L20.5097 12.0517C20.5097 12.0517 19.2872 10.7152 17.033 10.7152C15.0134 10.7152 14.334 11.2436 13.1879 12.3397C12.0229 13.4539 11.5246 14.6207 11.4697 16.2317C11.4135 17.8815 12.0408 18.5109 12.9836 19.8658C13.2307 20.2209 15.6363 22.2874 17.6426 23.4463C19.0697 24.2706 21.2319 25.5027 22.8275 27.4489C24.4888 29.4753 25.4234 31.0449 25.3697 33.7056C25.3186 36.2365 24.5474 37.9381 22.7438 39.7144C21.0005 41.4311 19.4227 42.088 16.9761 42.0891C14.1594 42.0905 12.2449 41.1271 10.4984 38.9172C9.2818 37.3781 8.75005 36.1829 8.71314 34.2214C8.66812 31.8305 9.37632 30.7198 10.84 28.8288C11.8381 27.5393 13.9884 25.677 13.9884 25.677L15.8105 26.8192C15.8105 26.8192 13.8478 28.591 12.7961 29.7499C11.7379 30.9159 10.7811 32.3436 10.8166 34.2214C10.8478 35.8805 11.3432 36.9005 12.4611 38.1268C13.7861 39.5802 14.9825 40.0899 16.9493 40.0862C18.9077 40.0824 20.5163 39.0345 21.3705 38.1268C22.6497 36.7674 23.2797 34.9382 23.2797 33.7056C23.2797 31.9507 22.7052 30.9577 21.7054 29.5155C20.1614 27.288 18.5005 26.6004 16.1756 25.0608C14.1526 23.7209 12.6301 22.8019 11.0611 20.7467C9.87203 19.1892 9.32568 17.9734 9.35287 16.0174C9.379 14.1337 10.0021 12.8539 11.1816 11.3851C12.7695 9.4079 14.5819 8.53277 17.1168 8.60177C20.4394 8.6922 21.9566 10.6215 21.9566 10.6215Z" fill="url(#paint0_linear_316_97)"/>
<path d="M40.3615 10.5914V30.44C40.3615 30.44 40.7137 32.3815 41.6142 33.0861C42.2846 33.6106 42.8312 33.7247 43.6808 33.7794C44.3098 33.8199 44.8876 33.5851 45.4827 33.3775C45.9919 33.1998 46.6284 32.6878 47.1742 31.8468C47.5024 31.341 47.963 29.5672 48.1321 27.9179C48.2828 26.4475 48.4362 24.6075 48.2159 22.522C47.9454 19.9626 47.6649 18.4618 46.655 16.0945C45.5993 13.6196 43.0176 10.243 43.0176 10.243C43.0176 10.243 39.5962 6.58379 36.6169 4.98446C32.7945 2.93257 29.8752 2.26609 25.5371 2.22789C21.6151 2.19335 19.2948 2.57183 15.73 4.2074C12.5539 5.66465 10.9344 6.91045 8.56903 9.48273C6.21905 12.0383 5.1225 14.0379 3.9837 16.9787C2.80114 20.0325 2.53484 22.0285 2.63724 25.3322C2.7315 28.3732 2.99227 30.125 4.09088 32.9621C5.17884 35.7718 6.07365 37.2359 8.02643 39.5303C10.273 42.17 11.9007 43.3377 14.9295 45.0234C16.4401 45.8641 19.6957 47.122 22.9279 47.4618C24.6853 47.6465 25.6664 47.6231 27.4261 47.4618C30.1423 47.2128 31.6824 46.8924 34.2087 45.8641C36.5203 44.9231 37.752 44.1116 39.7519 42.6185C41.708 41.1582 44.3071 37.7485 44.3071 37.7485L45.9952 37.6547L47.1005 37.3331C47.1005 37.3331 45.1947 40.4246 42.7061 42.8429C40.9279 44.5709 37.8923 46.5218 35.6355 47.5488C32.8057 48.8366 31.0363 49.2942 27.9419 49.5953C26.0946 49.7751 25.0366 49.7738 23.1892 49.5953C19.3242 49.2219 17.0056 48.5345 13.5898 46.688C10.2028 44.8572 8.41315 43.4413 5.98329 40.4548C3.95748 37.9648 3.02484 36.301 1.92047 33.287C0.83776 30.3322 0.589911 28.4782 0.513723 25.3322C0.429944 21.8726 0.710925 19.8338 1.88028 16.5768C3.21765 12.8518 4.42994 10.8641 7.13548 7.97549C9.73094 5.20436 11.6608 3.82465 15.1071 2.23124C18.8878 0.483171 21.3718 -0.0187156 25.5371 0.000528501C30.2252 0.0221885 33.0761 0.701019 37.2231 2.88773C40.5566 4.64547 42.2863 6.08758 44.7057 8.97697C46.634 11.28 47.5257 12.7932 48.658 15.5753C49.6864 18.1021 50.1023 19.643 50.3695 22.3579C50.5453 24.1439 50.5397 25.14 50.3695 26.9265C50.1899 28.8127 50.1183 30.0046 49.492 31.7296C48.9915 33.1078 48.5698 33.8795 47.3618 34.7105C46.1982 35.511 45.1824 35.8226 43.7712 35.7656C42.1927 35.7018 41.3127 35.5296 39.9495 34.255C38.3519 32.7612 38.3361 30.4012 38.3519 30.44L38.2815 15.9371L27.0745 28.5342V15.7126L19.8264 22.8536L18.0679 21.6411L29.1913 10.789V23.1015L40.3615 10.5914Z" fill="url(#paint1_linear_316_97)"/>
</g>
<defs>
<linearGradient id="paint0_linear_316_97" x1="25.4997" y1="-4.69452e-05" x2="25.4997" y2="49.7295" gradientUnits="userSpaceOnUse">
<stop stop-color="#CD41BF"/>
<stop offset="1" stop-color="#1292DA"/>
</linearGradient>
<linearGradient id="paint1_linear_316_97" x1="25.4996" y1="1.10708e-09" x2="25.4996" y2="49.7296" gradientUnits="userSpaceOnUse">
<stop stop-color="#EB42DC"/>
<stop offset="1" stop-color="#1392DA"/>
</linearGradient>
<clipPath id="clip0_316_97">
<rect width="50" height="49.7322" fill="white" transform="translate(0.5)"/>
</clipPath>
</defs>
</svg>
