<svg width="98" height="54" viewBox="0 0 98 54" fill="none" xmlns="http://www.w3.org/2000/svg">
<rect width="97" height="54" transform="translate(0.5)" fill="#F8F8F8"/>
<path d="M31 53V2H51.4C56.0278 2 59.9236 3.58194 63.0875 6.74583C66.2514 9.90972 67.8333 13.8056 67.8333 18.4333C67.8333 23.0611 66.2514 26.9569 63.0875 30.1208C59.9236 33.2847 56.0278 34.8667 51.4 34.8667H39.5V53H31ZM39.5 26.3667H51.4C53.6667 26.3667 55.5555 25.6111 57.0667 24.1C58.5778 22.5889 59.3333 20.7 59.3333 18.4333C59.3333 16.1667 58.5778 14.2778 57.0667 12.7667C55.5555 11.2556 53.6667 10.5 51.4 10.5H39.5V26.3667Z" fill="#1E2C60"/>
</svg>
