<svg width="28" height="28" viewBox="0 0 28 28" fill="none" xmlns="http://www.w3.org/2000/svg">
<path d="M18.2875 19.6292L19.6 18.3167L14.9625 13.65V7.78754H13.2125V14.35L18.2875 19.6292ZM14 25.6667C12.4056 25.6667 10.8986 25.3605 9.47918 24.748C8.05973 24.1355 6.82015 23.2993 5.76043 22.2396C4.7007 21.1799 3.86459 19.9403 3.25209 18.5209C2.63959 17.1014 2.33334 15.5945 2.33334 14C2.33334 12.4056 2.63959 10.8987 3.25209 9.47921C3.86459 8.05976 4.7007 6.82018 5.76043 5.76046C6.82015 4.70074 8.05973 3.86462 9.47918 3.25212C10.8986 2.63962 12.4056 2.33337 14 2.33337C15.5945 2.33337 17.1014 2.63962 18.5208 3.25212C19.9403 3.86462 21.1799 4.70074 22.2396 5.76046C23.2993 6.82018 24.1354 8.05976 24.7479 9.47921C25.3604 10.8987 25.6667 12.4056 25.6667 14C25.6667 15.5945 25.3604 17.1014 24.7479 18.5209C24.1354 19.9403 23.2993 21.1799 22.2396 22.2396C21.1799 23.2993 19.9403 24.1355 18.5208 24.748C17.1014 25.3605 15.5945 25.6667 14 25.6667ZM14 23.9167C16.7222 23.9167 19.0556 22.9445 21 21C22.9445 19.0556 23.9167 16.7223 23.9167 14C23.9167 11.2778 22.9445 8.94449 21 7.00004C19.0556 5.0556 16.7222 4.08337 14 4.08337C11.2778 4.08337 8.94445 5.0556 7.00001 7.00004C5.05557 8.94449 4.08334 11.2778 4.08334 14C4.08334 16.7223 5.05557 19.0556 7.00001 21C8.94445 22.9445 11.2778 23.9167 14 23.9167Z" fill="#1E2C60"/>
</svg>
