<svg width="43" height="43" viewBox="0 0 43 43" fill="none" xmlns="http://www.w3.org/2000/svg">
<rect width="43" height="43" rx="21.5" fill="#1E2C60"/>
<path d="M14.8734 10.4295C14.4862 10.398 14.0557 10.51 13.6586 10.7892C13.3087 11.0329 12.5538 11.6324 11.8481 12.3105C11.4962 12.6486 11.1601 13.0004 10.9006 13.3463C10.6391 13.6923 10.4111 14.0087 10.4248 14.4686C10.4386 14.8814 10.4799 16.102 11.3586 17.9732C12.2373 19.8424 13.9416 22.4075 17.2658 25.7332C20.5919 29.0589 23.1572 30.763 25.0267 31.6416C26.8962 32.5202 28.1189 32.5615 28.5317 32.5752C28.9897 32.589 29.3062 32.361 29.6522 32.0996C29.9982 31.8382 30.3501 31.504 30.6882 31.1522C31.3644 30.4466 31.964 29.6918 32.2077 29.3419C32.764 28.5498 32.6716 27.6142 32.0524 27.1798C31.6632 26.9066 28.0835 24.5244 27.5449 24.1942C26.9984 23.86 26.3693 24.0114 25.8071 24.3082C25.3648 24.5421 24.1677 25.228 23.8256 25.4246C23.5681 25.2615 22.5911 24.6109 20.4897 22.5097C18.3863 20.4085 17.7376 19.4316 17.5744 19.1742C17.771 18.8322 18.4551 17.641 18.691 17.1909C18.9858 16.6307 19.151 15.9959 18.7991 15.4455C18.6517 15.2116 17.9813 14.1915 17.3051 13.1675C16.6269 12.1434 15.9841 11.1724 15.817 10.9405V10.9385C15.5988 10.6378 15.2587 10.4609 14.8734 10.4295ZM21.4962 11.4417V12.4481C26.4912 12.4481 30.5545 16.5108 30.5545 21.5053H31.561C31.561 15.9566 27.0456 11.4417 21.4962 11.4417ZM14.781 11.4574C14.9186 11.4751 15.0012 11.5302 15.0012 11.5302C15.0818 11.6422 15.7875 12.6997 16.4637 13.7217C17.14 14.7458 17.83 15.7954 17.9499 15.986C17.9695 16.0155 17.9971 16.3497 17.8005 16.7212V16.7231C17.5783 17.1457 16.5424 18.956 16.5424 18.956L16.3989 19.2095L16.5463 19.4611C16.5463 19.4611 17.3189 20.7643 19.7761 23.2212C22.2353 25.6781 23.5386 26.4526 23.5386 26.4526L23.7902 26.6L24.0438 26.4565C24.0438 26.4565 25.8504 25.4226 26.2769 25.1986C26.6485 25.004 26.9827 25.0295 27.022 25.0531C27.3699 25.2673 31.2366 27.8363 31.4745 28.0034C31.4823 28.0093 31.6927 28.3277 31.386 28.764H31.3841C31.1993 29.0294 30.5938 29.7979 29.9628 30.4544C29.6463 30.7827 29.3219 31.0893 29.0467 31.2957C28.7715 31.5021 28.5258 31.5669 28.5651 31.5689C28.1366 31.5551 27.191 31.5453 25.4552 30.7296C23.7195 29.9159 21.2426 28.2864 17.9774 25.0197C14.7142 21.7569 13.0846 19.2803 12.2688 17.5428C11.4549 15.8072 11.4451 14.8618 11.4313 14.4352C11.4333 14.4745 11.4982 14.2269 11.7046 13.9517C11.911 13.6765 12.2157 13.3503 12.544 13.0338C13.2025 12.4029 13.9692 11.7975 14.2345 11.6127V11.6147C14.4527 11.4614 14.6434 11.4417 14.781 11.4574ZM21.4962 14.2308V15.2372C24.954 15.2372 27.765 18.0499 27.765 21.5053H28.7715C28.7715 17.4936 25.5083 14.2308 21.4962 14.2308ZM21.4962 16.9767V17.983C23.4383 17.983 25.0188 19.5633 25.0188 21.5053H26.0253C26.0253 19.0071 23.9927 16.9767 21.4962 16.9767Z" fill="white"/>
</svg>
