<svg width="43" height="43" viewBox="0 0 43 43" fill="none" xmlns="http://www.w3.org/2000/svg">
<rect width="43" height="43" rx="21.5" fill="#1E2C60"/>
<path d="M10.4242 13.0303V13.4646V28.6666H32.5758V13.0303H10.4242ZM11.3103 13.899H31.6897V14.9874C31.5017 15.148 23.6327 21.8718 22.9779 22.4306C22.4032 22.9211 21.8178 23.021 21.5 23.021C21.1825 23.021 20.5968 22.9211 20.0221 22.4306C19.3673 21.8718 11.4983 15.148 11.3103 14.9874V13.899ZM11.3103 16.136C12.3904 17.0591 18.8275 22.5606 19.4415 23.0846C20.1949 23.7277 20.9926 23.888 21.5 23.888C22.0071 23.888 22.805 23.7278 23.5585 23.0846C24.1725 22.5606 30.6096 17.0598 31.6897 16.1368V27.798H11.3103V16.136Z" fill="white"/>
</svg>
