<svg width="43" height="43" viewBox="0 0 43 43" fill="none" xmlns="http://www.w3.org/2000/svg">
<rect width="43" height="43" rx="21.5" fill="#54CE6B"/>
<g clip-path="url(#clip0_344_113)">
<path d="M29.4015 13.4891C28.3012 12.3786 26.9909 11.4982 25.547 10.8992C24.103 10.3002 22.5543 9.99453 20.991 10.0001C14.4405 10.0001 9.102 15.3371 9.096 21.8891C9.096 23.9876 9.645 26.0291 10.6815 27.8366L9 34.0001L15.306 32.3471C17.0505 33.2964 19.0049 33.7941 20.991 33.7946H20.997C27.549 33.7946 32.886 28.4576 32.892 21.8996C32.8935 20.3366 32.5857 18.7889 31.9864 17.3454C31.3871 15.9019 30.5096 14.5913 29.4015 13.4891ZM20.991 31.7816C19.2195 31.7822 17.4806 31.3055 15.957 30.4016L15.597 30.1856L11.856 31.1666L12.855 27.5171L12.621 27.1406C11.6307 25.5661 11.107 23.7431 11.1105 21.8831C11.1105 16.4441 15.546 12.0071 20.997 12.0071C22.2956 12.0047 23.5818 12.2595 24.7815 12.7566C25.9812 13.2537 27.0707 13.9834 27.987 14.9036C28.9065 15.8201 29.6355 16.9097 30.1319 18.1094C30.6283 19.3091 30.8822 20.5952 30.879 21.8936C30.873 27.3521 26.4375 31.7816 20.991 31.7816ZM26.4135 24.3806C26.118 24.2321 24.6585 23.5136 24.384 23.4116C24.111 23.3141 23.9115 23.2631 23.7165 23.5601C23.517 23.8556 22.947 24.5291 22.776 24.7226C22.605 24.9221 22.428 24.9446 22.131 24.7976C21.8355 24.6476 20.877 24.3356 19.743 23.3201C18.858 22.5326 18.2655 21.5576 18.0885 21.2621C17.9175 20.9651 18.072 20.8061 18.2205 20.6576C18.351 20.5256 18.516 20.3096 18.6645 20.1386C18.8145 19.9676 18.864 19.8416 18.9615 19.6436C19.059 19.4426 19.0125 19.2716 18.939 19.1231C18.864 18.9746 18.2715 17.5091 18.021 16.9181C17.781 16.3346 17.5365 16.4156 17.3535 16.4081C17.1825 16.3976 16.983 16.3976 16.7835 16.3976C16.6328 16.4013 16.4846 16.4362 16.348 16.4999C16.2115 16.5637 16.0896 16.655 15.99 16.7681C15.717 17.0651 14.9535 17.7836 14.9535 19.2491C14.9535 20.7146 16.0185 22.1231 16.1685 22.3226C16.3155 22.5221 18.2595 25.5206 21.243 26.8106C21.948 27.1181 22.503 27.2996 22.9365 27.4376C23.649 27.6656 24.2925 27.6311 24.8055 27.5576C25.3755 27.4706 26.562 26.8376 26.8125 26.1431C27.0585 25.4471 27.0585 24.8531 26.9835 24.7286C26.91 24.6026 26.7105 24.5291 26.4135 24.3806Z" fill="white"/>
</g>
<defs>
<clipPath id="clip0_344_113">
<rect width="24" height="24" fill="white" transform="translate(9 10)"/>
</clipPath>
</defs>
</svg>
