<svg width="33" height="34" viewBox="0 0 33 34" fill="none" xmlns="http://www.w3.org/2000/svg">
<g clip-path="url(#clip0_2_367)">
<circle cx="16.5" cy="16.8661" r="16.5" fill="#1E2C60"/>
<path d="M11.4145 8.87006C11.1173 8.84593 10.7869 8.93191 10.4821 9.14611C10.2136 9.33315 9.6343 9.79323 9.0927 10.3136C8.82266 10.5731 8.56468 10.8431 8.36554 11.1086C8.16489 11.3741 7.98989 11.6169 8.00045 11.9699C8.01101 12.2867 8.0427 13.2234 8.71705 14.6595C9.39141 16.094 10.6994 18.0625 13.2505 20.6148C15.8031 23.1671 17.7718 24.4749 19.2065 25.1492C20.6412 25.8234 21.5796 25.8551 21.8964 25.8657C22.2479 25.8762 22.4908 25.7012 22.7563 25.5006C23.0218 25.3 23.2919 25.0436 23.5514 24.7736C24.0703 24.232 24.5305 23.6528 24.7175 23.3843C25.1445 22.7764 25.0736 22.0584 24.5984 21.725C24.2997 21.5153 21.5524 19.6871 21.1391 19.4337C20.7197 19.1772 20.2369 19.2934 19.8055 19.5212C19.466 19.7007 18.5473 20.2271 18.2848 20.378C18.0871 20.2528 17.3373 19.7535 15.7246 18.1409C14.1104 16.5284 13.6125 15.7787 13.4873 15.5811C13.6382 15.3186 14.1632 14.4045 14.3442 14.0591C14.5705 13.6292 14.6972 13.142 14.4272 12.7196C14.3141 12.5401 13.7996 11.7572 13.2806 10.9713C12.7602 10.1854 12.2668 9.44025 12.1386 9.26226V9.26075C11.9712 9.02996 11.7102 8.8942 11.4145 8.87006ZM16.497 9.64691V10.4192C20.3305 10.4192 23.4488 13.5372 23.4488 17.3701H24.2212C24.2212 13.1118 20.7559 9.64691 16.497 9.64691ZM11.3436 9.65898C11.4492 9.67255 11.5125 9.71479 11.5125 9.71479C11.5744 9.80077 12.116 10.6123 12.635 11.3967C13.1539 12.1826 13.6834 12.9881 13.7755 13.1344C13.7906 13.1571 13.8117 13.4135 13.6608 13.6986V13.7001C13.4903 14.0244 12.6953 15.4137 12.6953 15.4137L12.5852 15.6083L12.6983 15.8013C12.6983 15.8013 13.2912 16.8014 15.177 18.687C17.0643 20.5725 18.0645 21.1669 18.0645 21.1669L18.2576 21.28L18.4522 21.1699C18.4522 21.1699 19.8386 20.3764 20.166 20.2045C20.4511 20.0552 20.7076 20.0748 20.7378 20.0929C21.0048 20.2573 23.9723 22.2288 24.1548 22.357C24.1609 22.3616 24.3223 22.6059 24.0869 22.9408H24.0854C23.9436 23.1444 23.479 23.7342 22.9947 24.2381C22.7518 24.49 22.5029 24.7253 22.2917 24.8837C22.0805 25.0421 21.8919 25.0918 21.9221 25.0933C21.5932 25.0828 20.8675 25.0752 19.5354 24.4492C18.2033 23.8247 16.3024 22.5742 13.7966 20.0672C11.2923 17.5632 10.0416 15.6626 9.41555 14.3291C8.79097 12.9972 8.78343 12.2716 8.77287 11.9443C8.77438 11.9744 8.82416 11.7844 8.98257 11.5732C9.14098 11.362 9.37481 11.1116 9.62675 10.8687C10.1321 10.3845 10.7205 9.91994 10.9242 9.77814V9.77965C11.0916 9.66199 11.238 9.64691 11.3436 9.65898ZM16.497 11.7874V12.5597C19.1507 12.5597 21.308 14.7183 21.308 17.3701H22.0805C22.0805 14.2914 19.5761 11.7874 16.497 11.7874ZM16.497 13.8947V14.667C17.9876 14.667 19.2005 15.8798 19.2005 17.3701H19.9729C19.9729 15.4529 18.413 13.8947 16.497 13.8947Z" fill="white"/>
</g>
<defs>
<clipPath id="clip0_2_367">
<rect y="0.866119" width="33" height="33" rx="16.5" fill="white"/>
</clipPath>
</defs>
</svg>
