<svg width="33" height="34" viewBox="0 0 33 34" fill="none" xmlns="http://www.w3.org/2000/svg">
<g clip-path="url(#clip0_3_377)">
<circle cx="16.5" cy="16.8661" r="16.5" fill="#1E2C60"/>
<path d="M9.41667 25.8661C9.03889 25.8661 8.70833 25.7386 8.425 25.4836C8.14167 25.2286 8 24.9311 8 24.5911V11.4161C8 11.0761 8.14167 10.7786 8.425 10.5236C8.70833 10.2686 9.03889 10.1411 9.41667 10.1411H10.9514V8.86612H12.4861V10.1411H20.5139V8.86612H22.0486V10.1411H23.5833C23.9611 10.1411 24.2917 10.2686 24.575 10.5236C24.8583 10.7786 25 11.0761 25 11.4161V24.5911C25 24.9311 24.8583 25.2286 24.575 25.4836C24.2917 25.7386 23.9611 25.8661 23.5833 25.8661H9.41667ZM9.41667 24.5911H23.5833V15.4536H9.41667V24.5911ZM9.41667 14.1786H23.5833V11.4161H9.41667V14.1786ZM16.5 19.0661C16.2324 19.0661 16.0081 18.9847 15.8271 18.8217C15.6461 18.6588 15.5556 18.457 15.5556 18.2161C15.5556 17.9753 15.6461 17.7734 15.8271 17.6105C16.0081 17.4476 16.2324 17.3661 16.5 17.3661C16.7676 17.3661 16.9919 17.4476 17.1729 17.6105C17.3539 17.7734 17.4444 17.9753 17.4444 18.2161C17.4444 18.457 17.3539 18.6588 17.1729 18.8217C16.9919 18.9847 16.7676 19.0661 16.5 19.0661ZM12.7222 19.0661C12.4546 19.0661 12.2303 18.9847 12.0493 18.8217C11.8683 18.6588 11.7778 18.457 11.7778 18.2161C11.7778 17.9753 11.8683 17.7734 12.0493 17.6105C12.2303 17.4476 12.4546 17.3661 12.7222 17.3661C12.9898 17.3661 13.2141 17.4476 13.3951 17.6105C13.5762 17.7734 13.6667 17.9753 13.6667 18.2161C13.6667 18.457 13.5762 18.6588 13.3951 18.8217C13.2141 18.9847 12.9898 19.0661 12.7222 19.0661ZM20.2778 19.0661C20.0102 19.0661 19.7859 18.9847 19.6049 18.8217C19.4238 18.6588 19.3333 18.457 19.3333 18.2161C19.3333 17.9753 19.4238 17.7734 19.6049 17.6105C19.7859 17.4476 20.0102 17.3661 20.2778 17.3661C20.5454 17.3661 20.7697 17.4476 20.9507 17.6105C21.1317 17.7734 21.2222 17.9753 21.2222 18.2161C21.2222 18.457 21.1317 18.6588 20.9507 18.8217C20.7697 18.9847 20.5454 19.0661 20.2778 19.0661ZM16.5 22.4661C16.2324 22.4661 16.0081 22.3847 15.8271 22.2217C15.6461 22.0588 15.5556 21.857 15.5556 21.6161C15.5556 21.3753 15.6461 21.1734 15.8271 21.0105C16.0081 20.8476 16.2324 20.7661 16.5 20.7661C16.7676 20.7661 16.9919 20.8476 17.1729 21.0105C17.3539 21.1734 17.4444 21.3753 17.4444 21.6161C17.4444 21.857 17.3539 22.0588 17.1729 22.2217C16.9919 22.3847 16.7676 22.4661 16.5 22.4661ZM12.7222 22.4661C12.4546 22.4661 12.2303 22.3847 12.0493 22.2217C11.8683 22.0588 11.7778 21.857 11.7778 21.6161C11.7778 21.3753 11.8683 21.1734 12.0493 21.0105C12.2303 20.8476 12.4546 20.7661 12.7222 20.7661C12.9898 20.7661 13.2141 20.8476 13.3951 21.0105C13.5762 21.1734 13.6667 21.3753 13.6667 21.6161C13.6667 21.857 13.5762 22.0588 13.3951 22.2217C13.2141 22.3847 12.9898 22.4661 12.7222 22.4661ZM20.2778 22.4661C20.0102 22.4661 19.7859 22.3847 19.6049 22.2217C19.4238 22.0588 19.3333 21.857 19.3333 21.6161C19.3333 21.3753 19.4238 21.1734 19.6049 21.0105C19.7859 20.8476 20.0102 20.7661 20.2778 20.7661C20.5454 20.7661 20.7697 20.8476 20.9507 21.0105C21.1317 21.1734 21.2222 21.3753 21.2222 21.6161C21.2222 21.857 21.1317 22.0588 20.9507 22.2217C20.7697 22.3847 20.5454 22.4661 20.2778 22.4661Z" fill="white"/>
</g>
<defs>
<clipPath id="clip0_3_377">
<rect y="0.866119" width="33" height="33" rx="16.5" fill="white"/>
</clipPath>
</defs>
</svg>
