<svg width="33" height="34" viewBox="0 0 33 34" fill="none" xmlns="http://www.w3.org/2000/svg">
<circle cx="16.5" cy="17.5" r="16.5" fill="#1E2C60"/>
<path d="M16.5021 17.75C16.9538 17.75 17.3398 17.5784 17.6602 17.2353C17.9805 16.8921 18.1406 16.4796 18.1406 15.9978C18.1406 15.5159 17.9798 15.1042 17.6581 14.7625C17.3364 14.4208 16.9497 14.25 16.4979 14.25C16.0462 14.25 15.6602 14.4216 15.3398 14.7647C15.0195 15.1079 14.8594 15.5204 14.8594 16.0022C14.8594 16.4841 15.0202 16.8958 15.3419 17.2375C15.6636 17.5792 16.0503 17.75 16.5021 17.75ZM16.5 26.025C18.5781 24.0083 20.1133 22.1792 21.1055 20.5375C22.0977 18.8958 22.5938 17.45 22.5938 16.2C22.5938 14.2368 22.0055 12.6294 20.8291 11.3776C19.6527 10.1259 18.2096 9.5 16.5 9.5C14.7904 9.5 13.3473 10.1259 12.1709 11.3776C10.9945 12.6294 10.4062 14.2368 10.4062 16.2C10.4062 17.45 10.9141 18.8958 11.9297 20.5375C12.9453 22.1792 14.4688 24.0083 16.5 26.025ZM16.5 28C13.9844 25.7167 12.1055 23.5958 10.8633 21.6375C9.62109 19.6792 9 17.8667 9 16.2C9 13.7 9.75391 11.7083 11.2617 10.225C12.7695 8.74167 14.5156 8 16.5 8C18.4844 8 20.2305 8.74167 21.7383 10.225C23.2461 11.7083 24 13.7 24 16.2C24 17.8667 23.3789 19.6792 22.1367 21.6375C20.8945 23.5958 19.0156 25.7167 16.5 28Z" fill="white"/>
</svg>
